<?xml version="1.0" encoding="UTF-8" standalone="no"?>
<!-- Created with Inkscape (http://www.inkscape.org/) -->

<svg
   version="1.1"
   id="svg2"
   width="496.58667"
   height="434.37332"
   viewBox="0 0 496.58667 434.37332"
   sodipodi:docname="Sony_Alpha.eps"
   xmlns:inkscape="http://www.inkscape.org/namespaces/inkscape"
   xmlns:sodipodi="http://sodipodi.sourceforge.net/DTD/sodipodi-0.dtd"
   xmlns="http://www.w3.org/2000/svg"
   xmlns:svg="http://www.w3.org/2000/svg">
  <defs
     id="defs6" />
  <sodipodi:namedview
     id="namedview4"
     pagecolor="#ffffff"
     bordercolor="#000000"
     borderopacity="0.25"
     inkscape:showpageshadow="2"
     inkscape:pageopacity="0.0"
     inkscape:pagecheckerboard="0"
     inkscape:deskcolor="#d1d1d1" />
  <g
     id="g8"
     inkscape:groupmode="layer"
     inkscape:label="ink_ext_XXXXXX"
     transform="matrix(1.3333333,0,0,-1.3333333,0,434.37333)">
    <g
       id="g10"
       transform="scale(0.1)">
      <path
         d="m 3147.39,1013.61 c -271.77,-19.411 -332.44,114.06 -385.83,269.36 -38.63,112.39 -82.5,253.98 -102.23,322.2 124.91,191.78 269.67,422.07 485.24,762.49 H 2741.24 C 2669.52,2255.23 2598.7,2141.38 2528.59,2030 c -20.02,56.06 -47.59,116.41 -79.63,167.72 -92.83,143.81 -238.8,242.81 -456.36,229.49 -287.6,-17.62 -504.86,-155.44 -680.22,-330.8 -160.78,-160.78 -317.618,-395.61 -335.45,-661.59 -23.879,-356.07 236.23,-560.015 531.13,-582.379 233.03,-17.687 407.55,44.27 554.43,121.133 99.71,52.166 311.85,228.936 375.33,307.756 47.13,-218.5 168.72,-427.873 442.65,-427.873 169.76,0 277.29,93.184 335.12,165.213 -20.77,-1.6 -43.32,-3.28 -68.2,-5.06 z m -1308.53,132.35 c -62.91,-45.59 -143.6,-94.01 -228.31,-107.16 -210.63,-32.71 -303.5,130.83 -288.85,349.43 11.44,170.68 79.16,328.82 158.41,465.91 81.23,140.52 176.07,265.04 284.21,340.11 38.61,26.82 96.6,58.77 177.04,65.23 193.57,15.54 264.81,-193.89 314.07,-369.39 23,-82.38 38.49,-166.16 45.96,-210.21 -55.21,-81.03 -226.55,-362.95 -462.53,-533.92"
         style="fill:#f1491c;fill-opacity:1;fill-rule:nonzero;stroke:none"
         id="path12" />
      <path
         d="m 376.59,0 h -270"
         style="fill:none;stroke:#000000;stroke-width:5;stroke-linecap:butt;stroke-linejoin:miter;stroke-miterlimit:4;stroke-dasharray:none;stroke-opacity:1"
         id="path14" />
      <path
         d="m 376.59,3257.81 h -270"
         style="fill:none;stroke:#000000;stroke-width:5;stroke-linecap:butt;stroke-linejoin:miter;stroke-miterlimit:4;stroke-dasharray:none;stroke-opacity:1"
         id="path16" />
    </g>
  </g>
</svg>
