<?xml version="1.0" encoding="utf-8"?>
<!-- Generator: Adobe Illustrator 24.3.0, SVG Export Plug-In . SVG Version: 6.00 Build 0)  -->
<svg version="1.1" id="Layer_1" xmlns="http://www.w3.org/2000/svg" xmlns:xlink="http://www.w3.org/1999/xlink" x="0px" y="0px"
	 viewBox="0 0 512 512" style="enable-background:new 0 0 512 512;" xml:space="preserve">
<g transform="translate(-27.1382,-941.70395)">
	<g transform="matrix(0.82302261,0,0,-0.82302261,189.63913,997.27701)">
		<path d="M139.61-269.49c0-19.2-24.03-18.06-24.03-18.06H91.68v34.84h24.03C140.32-252.57,139.61-269.49,139.61-269.49
			 M91.68-199.67h18.2c18.91-1,18.2-15.07,18.2-15.07c0-17.49-20.9-17.78-20.9-17.78h-15.5V-199.67z M135.2-239.49
			c0,0,16.35,6.97,16.21,25.6c0,0,2.56,30.43-37.83,34.13H68.93v-127.42h51.2c0,0,42.81-0.14,42.81,35.98
			C163.07-271.34,164.07-246.74,135.2-239.49 M19.58-154.87h188.14v-177.34H19.58V-154.87z"/>
	</g>
	<g transform="matrix(0.82302261,0,0,-0.82302261,85.355129,997.27701)">
		<path d="M49.43-269.49c0-19.2-24.03-18.06-24.03-18.06H1.37v34.84H25.4C50.15-252.57,49.43-269.49,49.43-269.49 M1.37-199.67h18.2
			c18.91-1,18.2-15.07,18.2-15.07c0-17.49-20.9-17.78-20.9-17.78H1.37V-199.67z M44.88-239.49c0,0,16.35,6.97,16.21,25.6
			c0,0,2.56,30.43-37.83,34.13h-44.51v-127.42h51.2c0,0,42.81-0.14,42.81,35.98C72.76-271.34,73.75-246.74,44.88-239.49
			 M-70.73-154.87h188.14v-177.34H-70.73V-154.87z"/>
	</g>
	<g transform="matrix(0.82302261,0,0,-0.82302261,308.1885,958.5961)">
		<path d="M242.22-236v-23.61c0,0-23.04,14.08-48.35,14.36c0,0-47.36,1-49.49-45.36c0,0-1.71-42.66,48.92-45.08
			c0,0,21.33-2.56,50.06,15.79v-24.46c0,0-38.68-23.04-83.48-5.26c0,0-37.69,13.79-39.11,58.87c0,0-1.56,46.36,48.64,61.86
			c0,0,13.37,5.12,37.54,2.84C206.95-225.91,221.31-227.33,242.22-236 M92.47-379.21h188.14v177.34H92.47V-379.21z"/>
	</g>
</g>
</svg>
