<?xml version="1.0" encoding="utf-8"?>
<!-- Generator: Adobe Illustrator 24.3.0, SVG Export Plug-In . SVG Version: 6.00 Build 0)  -->
<svg version="1.1" id="Layer_1" xmlns="http://www.w3.org/2000/svg" xmlns:xlink="http://www.w3.org/1999/xlink" x="0px" y="0px"
	 viewBox="0 0 512 512" style="enable-background:new 0 0 512 512;" xml:space="preserve">
<style type="text/css">
	.st0{fill:#D81921;}
</style>
<g transform="matrix(1.2470709,0,0,-1.2470709,-28.601861,1011.2423)">
	<g transform="translate(-216,-15084)">
		<path class="st0" d="M407.96,15787.2c-16.97-1.17-31.46-15.51-31.46-35.71v-96c0-3.51-2.63-6.44-6.29-6.44h-30
			c-64.97-0.15-59.12,82.82-3.95,82.97h33.22v24.14h-34.39c-21.95,0-38.34-8.19-49.31-20.49c-10.98-12.29-16.54-28.68-16.54-45.22
			c0-16.39,5.41-32.78,16.68-45.07c11.27-12.29,28.24-20.49,51.66-20.49h56.48c3.8,0,6.88,3.22,6.88,6.88v117.07
			c0,6,3.37,10.68,7.76,12.15c4.39,1.32,9.66-0.29,12.73-4.83l0.15-0.15c16.1-26.34,79.9-128.77,80.04-128.92
			c1.76-2.49,3.8-2.93,5.41-2.49c1.46,0.59,3.07,2.19,3.07,6.29v117.94c0,6,3.37,10.68,7.76,12.15c4.39,1.32,9.51-0.29,12.58-4.83
			v-0.15h0.29c16.1-26.34,79.9-128.77,80.04-128.92c1.76-2.49,3.8-2.93,5.41-2.49c1.61,0.59,3.22,2.05,3.22,6.15v155.7h-24.29
			v-90.87c0,0-14.49,24.73-39.22,67.31c-24.29,41.71-70.09,24.44-70.09-11.41v-55.75c0,0-14.19,24.73-38.92,67.31
			C436.05,15781.2,421.27,15788.22,407.96,15787.2L407.96,15787.2z M339.33,15786.61c-134.92,0-133.6-192.28,1.76-192.43h52.97
			c22.83,0,37.32,13.46,37.32,38.34v48.73c0,0,29.71-49.17,41.41-68.48c19.76-32.78,67.75-26.34,67.61,14.63v53.85
			c0,0,29.71-49.17,41.27-68.48c19.76-32.78,67.9-26.34,67.75,14.63v159.07h-24.29v-155.7c0-6-3.07-10.39-7.46-11.85
			c-4.39-1.46-9.22,0.29-12.29,4.68h-0.15v0.29c0,0-63.95,102.14-80.19,128.77h-0.15v0.15c-1.61,2.19-3.8,2.78-5.56,2.19
			s-3.51-2.19-3.51-6.15v-117.94c0-6-3.07-10.68-7.32-12c-4.24-1.46-9.22,0.44-12.15,4.83v0.15h-0.15c0,0-63.95,102.29-80.19,128.92
			c-1.76,2.49-3.95,3.07-5.71,2.49c-1.76-0.59-3.51-2.2-3.51-6.15v-0.15v-117.07c0-7.17-5.85-13.02-12.88-13.02h-56.48
			c-24.88,0-43.61,8.93-56.05,22.39s-18.58,31.32-18.58,49.17c0,17.85,6.15,35.85,18.29,49.31c12.15,13.46,30.29,22.39,53.85,22.39
			h34.39v24.44L339.33,15786.61L339.33,15786.61z"/>
	</g>
</g>
</svg>
